<svg id="Grupo_3" data-name="Grupo 3" xmlns="http://www.w3.org/2000/svg" width="298.514" height="57.396" viewBox="0 0 298.514 57.396">
  <path id="Trazado_1" data-name="Trazado 1" d="M165.457,117.542,150.706,92.7l7.469-12.558a6.043,6.043,0,1,0-4.8-5.913,6.014,6.014,0,0,0,1.346,3.795.329.329,0,0,0-.022.03L148.35,88.737,133.931,64.455a2.027,2.027,0,0,0-3.485,0L116.035,88.729,109.7,78.059c-.017-.027-.039-.049-.056-.075a1.943,1.943,0,0,0-.128-.174c-.043-.051-.086-.1-.132-.146s-.091-.086-.14-.126a1.8,1.8,0,0,0-.181-.134c-.025-.017-.045-.037-.071-.053s-.052-.022-.078-.036a1.889,1.889,0,0,0-.2-.1c-.056-.022-.112-.043-.17-.061a2.005,2.005,0,0,0-.2-.048c-.062-.012-.123-.022-.185-.028a2,2,0,0,0-.205-.008c-.061,0-.121,0-.181.007a1.816,1.816,0,0,0-.207.032c-.06.012-.12.025-.179.043a1.944,1.944,0,0,0-.189.068c-.063.026-.125.054-.186.086-.028.015-.058.024-.085.04s-.051.04-.079.058a2.02,2.02,0,0,0-.168.124,1.909,1.909,0,0,0-.149.135,1.874,1.874,0,0,0-.126.14,1.719,1.719,0,0,0-.131.177c-.018.026-.039.047-.055.074L82.772,117.542a2.027,2.027,0,0,0,1.742,3.061H116.82a1.812,1.812,0,0,0,.222-.015c.05-.006.1-.014.148-.024.024,0,.049-.008.073-.014a1.969,1.969,0,0,0,.335-.1c.016-.006.029-.014.044-.021a2,2,0,0,0,.277-.15c.019-.012.038-.023.056-.036a1.958,1.958,0,0,0,.274-.226l.023-.025a2.022,2.022,0,0,0,.2-.241c.017-.025.035-.05.051-.075s.03-.04.043-.062l5.546-9.342,5.547,9.342c.013.021.028.039.041.059s.036.054.055.08a2.068,2.068,0,0,0,.192.233c.01.011.019.022.03.033a2.02,2.02,0,0,0,.269.222c.02.014.042.027.062.04a2.03,2.03,0,0,0,.267.145l.053.025a2.019,2.019,0,0,0,.329.1l.082.016a2.025,2.025,0,0,0,.364.037h32.312a2.026,2.026,0,0,0,1.743-3.061Zm-6.037-45.3a1.99,1.99,0,1,1-1.99,1.99A1.99,1.99,0,0,1,159.42,72.243Zm-59.9,44.307H88.074l19.883-33.487,5.722,9.636Zm16.15,0H104.232l11.8-19.882,5.719,9.632Zm8.442-14.219L118.392,92.7l13.8-23.24,13.8,23.243-5.728,9.631L133.93,91.662c-.016-.027-.038-.048-.055-.074a1.991,1.991,0,0,0-.13-.176c-.041-.05-.083-.1-.128-.142a1.844,1.844,0,0,0-.147-.132,1.762,1.762,0,0,0-.171-.127c-.027-.018-.049-.04-.077-.057s-.056-.024-.083-.038a1.829,1.829,0,0,0-.191-.089c-.061-.025-.121-.047-.183-.066s-.124-.032-.188-.045-.13-.024-.2-.03-.129-.007-.194-.008-.128,0-.193.008-.13.018-.2.03-.126.027-.188.045-.122.041-.182.066a1.672,1.672,0,0,0-.192.089c-.027.014-.056.022-.083.038s-.049.039-.076.057a1.919,1.919,0,0,0-.173.127c-.051.042-.1.085-.145.131s-.088.093-.129.143a2.136,2.136,0,0,0-.13.175c-.017.027-.039.048-.055.075Zm8.443,14.219-6.086-10.25,5.719-9.634,6.333,10.668c.024.041.052.077.079.115s.033.051.052.075a1.974,1.974,0,0,0,.232.258c.015.014.031.026.047.04a1.972,1.972,0,0,0,.268.2c.01.006.018.015.029.021l.02.01c.051.03.1.055.157.08.03.014.059.03.088.042.045.019.092.033.138.048s.078.028.117.038.071.014.107.022.1.022.151.029.084.005.126.008.086.009.13.009h0c.042,0,.084-.006.126-.009s.087,0,.129-.008.094-.018.141-.027.079-.014.117-.024.071-.023.107-.035.1-.031.148-.051c.028-.011.054-.026.081-.038.056-.026.111-.052.164-.083l.019-.01c.01-.006.018-.014.028-.02a2,2,0,0,0,.27-.2c.015-.013.031-.025.045-.038a2,2,0,0,0,.234-.259c.018-.024.034-.049.051-.074s.055-.075.079-.115l6.344-10.667,11.806,19.881Z" transform="translate(-82.488 -63.464)" fill="#090079"/>
  <g id="Grupo_1" data-name="Grupo 1" transform="translate(98.431 1.982)">
    <path id="Trazado_2" data-name="Trazado 2" d="M180.919,87.111V65.756h2.665V87.111Z" transform="translate(-180.919 -65.446)" fill="#090079"/>
    <path id="Trazado_3" data-name="Trazado 3" d="M204.413,65.756h2.666V87.111h-3.007a148.726,148.726,0,0,0-10.445-18.132V87.111h-2.665V65.756h3.533a124.524,124.524,0,0,1,9.918,16.768Z" transform="translate(-180.919 -65.446)" fill="#090079"/>
    <path id="Trazado_4" data-name="Trazado 4" d="M226.917,65.756h2.852l-7.377,21.355h-2.821L212.2,65.756h2.883L221,84.073Z" transform="translate(-180.919 -65.446)" fill="#090079"/>
    <path id="Trazado_5" data-name="Trazado 5" d="M237.426,82.647c0,1.116.5,2.108,2.448,2.108h7.873v2.356h-8.338c-3.161-.093-4.587-1.024-4.649-4.06v-17.3h12.987v2.356H237.426V74.9h9.608v2.356h-9.608Z" transform="translate(-180.919 -65.446)" fill="#090079"/>
    <path id="Trazado_6" data-name="Trazado 6" d="M253.08,83.422a16,16,0,0,0,6.447,1.643c2.944,0,5.021-.837,5.176-3.533.093-2.448-3.161-3.224-7.346-4.619-4.959-1.641-4.618-5.579-4.618-5.579.124-3.6,2.79-5.888,8.182-5.888a17.535,17.535,0,0,1,5.549,1.177v2.448a15.007,15.007,0,0,0-5.61-1.209c-3.751,0-5.331,1.644-5.394,3.627,0,0-.185,1.954,2.728,2.851l1.24.435c4.68,1.519,8.244,2.79,8,6.973-.373,4.434-3.534,5.7-7.9,5.7A18.346,18.346,0,0,1,253.08,86Z" transform="translate(-180.919 -65.446)" fill="#090079"/>
    <path id="Trazado_7" data-name="Trazado 7" d="M277.847,87.111v-19h-6.726V65.756h16.086v2.356h-6.7v19Z" transform="translate(-180.919 -65.446)" fill="#090079"/>
  </g>
  <g id="Grupo_2" data-name="Grupo 2" transform="translate(96.848 35.359)">
    <path id="Trazado_8" data-name="Trazado 8" d="M189.9,118.566a95.332,95.332,0,0,0-4.835-10.537l-.93,12.491h-4.8l1.705-21.356h4.618a92.778,92.778,0,0,1,6.013,12.956,100.79,100.79,0,0,1,6.075-12.956h4.618l1.705,21.356h-4.8l-.931-12.491a95.517,95.517,0,0,0-4.834,10.537h-3.6Z" transform="translate(-179.336 -98.823)" fill="#090079"/>
    <path id="Trazado_9" data-name="Trazado 9" d="M220.035,120.86c-6.571,0-11.1-4.308-11.1-10.94,0-8,5.92-11.1,11.065-11.1,5.114,0,11.065,3.1,11.065,11.1C231.069,116.552,226.543,120.83,220.035,120.86Zm6.167-10.94c0-4.742-3.346-6.82-6.2-6.82-2.883,0-6.2,2.078-6.2,6.82,0,3.874,2.573,6.663,6.168,6.663C223.6,116.583,226.2,113.794,226.2,109.92Z" transform="translate(-179.336 -98.823)" fill="#090079"/>
    <path id="Trazado_10" data-name="Trazado 10" d="M236.619,120.52V99.164h4.8a70.559,70.559,0,0,1,7.223,11.965V99.164h4.865V120.52h-4.679a85,85,0,0,0-7.315-12.8v12.8Z" transform="translate(-179.336 -98.823)" fill="#090079"/>
    <path id="Trazado_11" data-name="Trazado 11" d="M264.33,120.52V103.349h-6.013V99.164H275.21v4.185h-5.983V120.52Z" transform="translate(-179.336 -98.823)" fill="#090079"/>
    <path id="Trazado_12" data-name="Trazado 12" d="M284.819,114.754a1.391,1.391,0,0,0,1.581,1.581h8.244v4.185h-9.329c-3.688-.125-5.331-1.209-5.362-4.742V99.164h14.691v4.185h-9.825V107.5h8.957v4.092h-8.957Z" transform="translate(-179.336 -98.823)" fill="#090079"/>
    <path id="Trazado_13" data-name="Trazado 13" d="M312.778,113.143a55.771,55.771,0,0,1,4.866,7.377h-5.3a73.3,73.3,0,0,0-4.278-6.6c-.743-1.054-1.084-1.394-2.045-1.394h-.682v8h-4.867V99.164h8.742c3.75,0,6.725,2.2,6.725,6.633,0,4.37-2.634,5.982-4.556,5.982A4.5,4.5,0,0,1,312.778,113.143Zm-3.936-4.65a2.412,2.412,0,0,0,2.293-2.6,2.354,2.354,0,0,0-2.293-2.541h-3.565v5.144Z" transform="translate(-179.336 -98.823)" fill="#090079"/>
    <path id="Trazado_14" data-name="Trazado 14" d="M334.569,113.143a55.681,55.681,0,0,1,4.867,7.377h-5.3a73.519,73.519,0,0,0-4.278-6.6c-.744-1.054-1.085-1.394-2.045-1.394h-.682v8h-4.867V99.164h8.741c3.75,0,6.726,2.2,6.726,6.633,0,4.37-2.635,5.982-4.557,5.982A4.492,4.492,0,0,1,334.569,113.143Zm-3.936-4.65a2.412,2.412,0,0,0,2.294-2.6,2.354,2.354,0,0,0-2.294-2.541h-3.565v5.144Z" transform="translate(-179.336 -98.823)" fill="#090079"/>
    <path id="Trazado_15" data-name="Trazado 15" d="M348.86,114.754a1.391,1.391,0,0,0,1.581,1.581h8.244v4.185h-9.329c-3.688-.125-5.331-1.209-5.362-4.742V99.164h14.691v4.185H348.86V107.5h8.957v4.092H348.86Z" transform="translate(-179.336 -98.823)" fill="#090079"/>
    <path id="Trazado_16" data-name="Trazado 16" d="M373.966,120.52H369.1v-9.114L362,99.164h5.579l3.936,7.873,3.9-7.873H381l-7.036,12.242Z" transform="translate(-179.336 -98.823)" fill="#090079"/>
  </g>
</svg>
