<svg id="Layer_1" style="enable-background:new 0 0 50 65.9;" version="1.1" viewBox="0 0 50 65.9" x="0px" xml:space="preserve" xmlns="http://www.w3.org/2000/svg" xmlns:xlink="http://www.w3.org/1999/xlink" y="0px">
<g class="logo-text" id="logo-text">
<polygon class="st0" points="5.7,58.6 8.4,58.6 8.4,65.8 9.5,65.8 9.5,58.6 12.2,58.6 12.2,57.6 5.7,57.6 	"></polygon>
<polygon class="st0" points="17.4,62.2 21.8,62.2 21.8,61.2 17.4,61.2 17.4,58.6 22.3,58.6 22.3,57.6 16.3,57.6 16.3,65.9 
		22.4,65.9 22.4,64.9 17.4,64.9 	"></polygon>
<polygon class="st0" points="32.6,63.9 27.6,57.6 26.7,57.6 26.7,65.9 27.7,65.9 27.7,59.4 32.9,65.9 33.7,65.9 33.7,57.6 
		32.6,57.6 	"></polygon>
<polygon class="st0" points="37.7,57.6 37.7,58.6 40.5,58.6 40.5,65.8 41.5,65.8 41.5,58.6 44.3,58.6 44.3,57.6 	"></polygon>
</g>
<path class="triangle" d="M0,43.2h50L25,0L0,43.2z" id="triangle"></path>
</svg>